HIERARCHY
ROOT root
{
	OFFSET 0.000000 0.000000 0.000000
	CHANNELS 6 Xposition Yposition Zposition Zrotation Yrotation Xrotation
	JOINT lhip
	{
		OFFSET 0.058581 -0.082280 -0.017664
		CHANNELS 3 Zrotation Yrotation Xrotation
		JOINT lknee
		{
			OFFSET 0.043451 -0.386469 0.008037
			CHANNELS 3 Zrotation Yrotation Xrotation
			JOINT lankle
			{
				OFFSET -0.014790 -0.426874 -0.037428
				CHANNELS 3 Zrotation Yrotation Xrotation
				JOINT ltoe
				{
					OFFSET 0.041054 -0.060286 0.122042
					CHANNELS 3 Zrotation Yrotation Xrotation
					End Site
					{
						OFFSET 0.000000 0.000000 0.000000
					}
				}
			}
		}
	}
	JOINT rhip
	{
		OFFSET -0.060310 -0.090513 -0.013543
		CHANNELS 3 Zrotation Yrotation Xrotation
		JOINT rknee
		{
			OFFSET -0.043257 -0.383688 -0.004843
			CHANNELS 3 Zrotation Yrotation Xrotation
			JOINT rankle
			{
				OFFSET 0.019056 -0.420046 -0.034562
				CHANNELS 3 Zrotation Yrotation Xrotation
				JOINT rtoe
				{
					OFFSET -0.034840 -0.062106 0.130323
					CHANNELS 3 Zrotation Yrotation Xrotation
					End Site
					{
						OFFSET 0.000000 0.000000 0.000000
					}
				}
			}
		}
	}
	JOINT lowerback
	{
		OFFSET 0.004439 0.124404 -0.038385
		CHANNELS 3 Zrotation Yrotation Xrotation
		JOINT upperback
		{
			OFFSET 0.004488 0.137956 0.026820
			CHANNELS 3 Zrotation Yrotation Xrotation
			JOINT chest
			{
				OFFSET -0.002265 0.056032 0.002855
				CHANNELS 3 Zrotation Yrotation Xrotation
				JOINT lowerneck
				{
					OFFSET -0.013390 0.211636 -0.033468
					CHANNELS 3 Zrotation Yrotation Xrotation
					JOINT upperneck
					{
						OFFSET 0.010113 0.088937 0.050410
						CHANNELS 3 Zrotation Yrotation Xrotation
						End Site
						{
							OFFSET 0.000000 0.000000 0.000000
						}
					}
				}
				JOINT lclavicle
				{
					OFFSET 0.071702 0.114000 -0.018898
					CHANNELS 3 Zrotation Yrotation Xrotation
					JOINT lshoulder
					{
						OFFSET 0.122921 0.045205 -0.019046
						CHANNELS 3 Zrotation Yrotation Xrotation
						JOINT lelbow
						{
							OFFSET 0.255332 -0.015649 -0.022946
							CHANNELS 3 Zrotation Yrotation Xrotation
							JOINT lwrist
							{
								OFFSET 0.265709 0.012698 -0.007375
								CHANNELS 3 Zrotation Yrotation Xrotation
								End Site
								{
									OFFSET 0.000000 0.000000 0.000000
								}
							}
						}
					}
				}
				JOINT rclavicle
				{
					OFFSET -0.082954 0.112472 -0.023707
					CHANNELS 3 Zrotation Yrotation Xrotation
					JOINT rshoulder
					{
						OFFSET -0.113228 0.046853 -0.008472
						CHANNELS 3 Zrotation Yrotation Xrotation
						JOINT relbow
						{
							OFFSET -0.260127 -0.014369 -0.031269
							CHANNELS 3 Zrotation Yrotation Xrotation
							JOINT rwrist
							{
								OFFSET -0.269108 0.006794 -0.006027
								CHANNELS 3 Zrotation Yrotation Xrotation
								End Site
								{
									OFFSET 0.000000 0.000000 0.000000
								}
							}
						}
					}
				}
			}
		}
	}
}
MOTION
Frames: 10
Frame Time: 0.033333
-1.245308 0.938011 1.002871 79.701776 -4.889678 91.867245 -6.325075 3.723494 -4.294564 -0.407585 5.434216 20.753853 3.156105 18.955009 -8.551804 0.000000 -0.000000 0.000000 3.786552 -2.608211 -6.385012 -7.400230 -9.199090 8.917918 -2.604916 -15.731209 -15.143881 0.000000 -0.000000 0.000000 0.351038 4.220495 1.584354 1.039467 -2.349770 13.062769 -0.016532 3.113538 -9.320565 -7.649637 2.993331 5.403024 4.099930 -1.439310 -3.958258 -21.015552 -9.200891 3.534124 -66.703685 -6.896701 11.841883 9.307497 2.729969 -21.620084 -16.699640 -13.730427 -0.341445 23.572173 20.162876 9.673863 66.792937 1.839574 10.220118 -9.400934 4.726303 -21.106238 10.404893 18.081033 -11.693791 
-1.230702 0.933376 1.000626 78.633061 -5.886692 90.296412 -6.872373 1.197898 -1.484781 -1.307193 7.028252 21.184960 4.016135 19.646621 -9.373298 0.000000 -0.000000 0.000000 2.587771 -3.814114 -4.187157 -7.443945 -11.624922 9.681044 -2.617561 -16.157744 -16.212777 0.000000 -0.000000 0.000000 0.083925 5.098434 3.371440 0.547966 -1.963001 12.630132 0.249201 3.033029 -9.454813 -7.674302 3.512537 5.964227 3.945250 -1.802524 -4.267530 -21.293525 -9.421957 4.182332 -66.220703 -6.848378 10.836774 9.399174 2.416064 -20.022833 -18.310355 -13.046516 -1.265061 23.335261 20.622551 10.340902 67.606891 1.687378 10.046373 -9.740003 5.069571 -20.914427 10.714304 17.973140 -13.417832 
-1.218891 0.927273 0.994241 78.879048 -5.120240 90.057063 -5.804710 1.234450 -1.520182 -0.535969 7.380699 22.696593 4.929055 21.115760 -12.534833 0.000000 -0.000000 0.000000 3.200042 -3.943718 -4.048887 -6.998739 -11.026544 11.915668 -2.440965 -16.872003 -17.865577 0.000000 -0.000000 0.000000 0.549776 5.184170 3.421753 0.773064 -1.872032 12.187717 0.291900 3.052839 -9.149800 -7.281099 3.521096 5.445776 3.569469 -2.304744 -3.970068 -21.330757 -9.311653 3.954444 -66.689248 -6.754203 10.223930 9.270804 2.622736 -20.970956 -18.847930 -12.677950 -1.984342 23.505424 20.673326 10.086714 67.532994 1.468185 9.777091 -10.309263 4.453991 -21.261497 10.643910 17.501130 -13.361901 
-1.203523 0.918665 0.988509 79.542555 -4.341775 90.001202 -4.661252 1.517896 -1.786265 1.304352 8.279281 20.220734 6.012886 23.216539 -16.113728 0.000000 -0.000000 0.000000 4.198202 -4.140439 -1.802679 -6.524824 -9.897404 10.624452 -2.017006 -16.852721 -18.930417 0.000000 -0.000000 0.000000 -0.091661 5.821741 2.913498 1.008110 -1.946189 12.439775 0.591784 2.931207 -9.267807 -6.988288 2.749508 4.720941 3.781658 -3.247801 -4.082208 -21.004903 -9.372570 3.492833 -67.293921 -6.440217 10.483987 9.524688 2.323518 -21.090423 -18.832231 -12.550832 -1.721022 23.761427 20.809666 9.963840 67.269428 1.310894 9.936848 -10.128822 3.805440 -21.145213 11.453737 17.534148 -14.124950 
-1.194505 0.913592 0.988453 80.514741 -4.109165 90.132496 -4.453904 1.031086 -2.889022 1.848780 7.279695 17.981284 5.409346 23.015804 -17.148438 0.000000 -0.000000 0.000000 4.931299 -4.771842 -0.449869 -6.687510 -9.954386 9.045181 -1.686037 -17.102097 -18.440617 0.000000 -0.000000 0.000000 -0.873546 6.137314 2.316949 0.948671 -2.317707 12.866556 0.724206 2.887729 -9.496402 -7.073444 2.657746 4.562439 4.131594 -3.831300 -4.007074 -20.580172 -9.684213 3.192551 -67.475324 -6.545723 10.939845 9.181300 2.928552 -20.675040 -19.056890 -12.959378 -1.117293 24.200744 21.108175 10.336625 67.239034 1.367678 10.145327 -9.925865 3.875885 -20.702091 11.270935 17.697928 -13.968706 
-1.183687 0.908390 0.991719 82.126929 -3.963327 90.199594 -4.502009 -0.483191 -4.842580 1.648871 3.842269 15.889530 4.622175 21.114772 -17.977064 0.000000 -0.000000 0.000000 5.514979 -5.213556 0.467760 -6.819978 -10.409739 8.630044 -1.163481 -17.448603 -16.930577 0.000000 -0.000000 0.000000 -1.991266 6.501905 2.308411 0.758023 -2.578045 12.541092 0.899375 2.644955 -9.102927 -7.463751 2.114408 4.090178 4.775982 -4.443178 -4.214286 -19.958502 -9.966921 2.954342 -67.803618 -6.953330 11.249958 9.100081 3.318088 -20.820328 -19.153380 -13.221450 -1.443907 24.293805 21.423506 10.410356 67.489507 1.383311 10.587361 -9.710646 4.267995 -20.099208 11.482373 17.800454 -14.110996 
-1.173205 0.905032 0.997617 83.125132 -3.721304 90.020801 -4.334842 -1.209953 -6.026507 1.642994 2.655463 13.430203 3.759815 19.495173 -16.102037 0.000000 -0.000000 0.000000 5.533828 -4.996466 -0.234475 -6.524695 -10.543285 11.781286 -0.729223 -17.797416 -15.161933 0.000000 -0.000000 0.000000 -2.757858 6.652120 2.462822 0.557232 -2.323803 12.678435 0.789158 2.380504 -8.657627 -7.398922 1.913661 3.549406 5.004948 -4.685515 -3.954477 -19.774657 -10.162614 3.157335 -67.737158 -7.516811 11.067257 9.609915 3.165923 -21.857953 -18.381036 -13.586047 -2.251795 24.145647 21.576086 10.463568 67.373420 1.729437 11.191957 -9.408655 5.209967 -19.434164 11.258645 17.857865 -14.218199 
-1.161685 0.903107 1.004734 83.831784 -2.892700 90.062549 -3.812588 -0.758281 -7.203999 1.260731 2.199459 11.862171 2.627568 17.873642 -13.274531 0.000000 -0.000000 0.000000 5.654685 -4.976723 -0.810942 -5.992081 -10.558075 14.312079 -0.725072 -16.751516 -12.862537 0.000000 -0.000000 0.000000 -3.112381 6.306180 2.073657 0.777026 -2.554842 13.209390 0.882457 2.396436 -8.717331 -7.265465 2.100416 4.406695 5.084518 -4.564062 -4.326449 -19.817857 -10.193589 3.330211 -67.921738 -7.514958 11.019600 9.732290 3.235507 -22.727084 -18.124382 -13.515041 -2.340547 24.166671 21.688705 10.703069 67.014152 2.155087 11.432256 -9.558020 5.304370 -19.277056 11.066175 17.702667 -13.363159 
-1.147758 0.901923 1.009632 84.377036 -1.934681 90.365650 -3.527712 -0.185558 -8.488026 0.776261 3.076908 13.086262 3.295589 16.712979 -8.688735 0.000000 -0.000000 0.000000 6.100660 -4.483834 -1.284347 -5.692993 -9.836723 16.553136 -1.163423 -15.895234 -11.864495 0.000000 -0.000000 0.000000 -3.236033 5.983005 0.958501 1.153435 -3.009160 13.942575 1.005793 2.110611 -9.174977 -6.874301 2.142312 5.592689 5.544791 -4.427243 -4.788693 -19.721635 -10.085410 3.621397 -68.371253 -7.267447 11.084856 9.521234 3.572189 -23.400348 -18.590708 -13.397991 -2.060867 24.002399 21.259056 10.578761 67.115426 1.944083 11.337990 -9.857608 5.388707 -19.745913 11.467623 17.467723 -12.818584 
-1.128530 0.902404 1.006978 84.328379 -1.170263 90.016998 -3.320537 0.750746 -7.516872 0.989289 5.662435 13.799697 4.004632 18.394540 -9.989456 0.000000 -0.000000 0.000000 6.212233 -3.667173 -1.230632 -5.683306 -9.726294 19.834103 -2.002984 -15.738440 -14.525234 0.000000 -0.000000 0.000000 -2.975101 5.169948 0.833539 1.349285 -3.415913 13.849960 1.137286 1.651406 -9.125826 -6.284703 2.274320 5.334713 5.411627 -4.007709 -5.567376 -20.105160 -10.201831 4.201552 -68.365619 -6.533419 10.339808 9.485574 2.672714 -22.911164 -18.019839 -13.388142 -2.606740 23.478272 20.893432 10.250887 67.310577 1.764444 10.993584 -9.817870 6.495404 -19.484320 10.584739 17.395090 -13.768434 
